<svg width="356" height="341" viewBox="0 0 356 341" fill="none" xmlns="http://www.w3.org/2000/svg">
    <g opacity="0.07">
        <path d="M230.866 180.074C233.79 167.888 232.284 155.06 226.618 143.883C220.953 132.706 211.496 123.91 199.942 119.069C188.387 114.228 175.487 113.657 163.55 117.459C151.613 121.261 141.418 129.187 134.788 139.82C128.355 150.232 125.704 162.543 127.282 174.681C128.86 186.819 134.571 198.043 143.452 206.462" stroke="#00AD4C" stroke-width="3.316" stroke-miterlimit="2.613" stroke-linecap="round" stroke-linejoin="round" stroke-dasharray="16.58 9.95 3.32 9.95"/>
        <path d="M291.71 137.701C288.81 126.287 284.201 115.377 278.04 105.342C267.025 87.5823 251.354 73.184 232.73 63.7125C214.106 54.241 193.242 50.0589 172.408 51.6209C151.574 53.1829 131.567 60.4293 114.563 72.572C97.558 84.7147 84.2071 101.289 75.9615 120.492C67.716 139.696 64.8916 160.793 67.7955 181.49C70.6994 202.187 79.2203 221.691 92.4318 237.882C105.643 254.073 123.039 266.33 142.728 273.321C162.417 280.312 183.646 281.768 204.105 277.533" stroke="#00AD4C" stroke-width="3.317" stroke-miterlimit="2.613" stroke-linecap="round" stroke-linejoin="round" stroke-dasharray="16.58 9.95 3.32 9.95"/>
        <path d="M106.293 1.91174C72.6082 16.9115 44.4956 42.1343 25.9385 74.0068C7.3813 105.879 -0.67945 142.785 2.89826 179.496C12.3336 276.185 98.2042 347.068 194.862 337.628C291.52 328.188 362.371 242.287 352.937 145.598C348.518 99.5983 326.178 57.1865 290.747 27.5325" stroke="#00AD4C" stroke-width="3.317" stroke-miterlimit="2.613" stroke-linecap="round" stroke-linejoin="round" stroke-dasharray="16.58 9.95 3.32 9.95"/>
        <path d="M243.385 222.255C255.951 207.897 263.225 189.669 263.996 170.602C264.766 151.534 258.988 132.778 247.621 117.452C236.255 102.127 219.985 91.1569 201.52 86.3668C183.055 81.5767 163.506 83.2556 146.127 91.124C128.748 98.9925 114.586 112.576 105.997 129.615C97.4083 146.655 94.9101 166.122 98.9184 184.779C102.927 203.436 113.2 220.157 128.029 232.162C142.857 244.166 161.348 250.73 180.424 250.761C184.941 250.759 189.451 250.372 193.902 249.605" stroke="#00AD4C" stroke-width="3.316" stroke-miterlimit="2.613" stroke-linecap="round" stroke-linejoin="round" stroke-dasharray="16.58 9.95 3.32 9.95"/>
        <path d="M34.8607 165.243C35.1371 192.046 42.8193 218.25 57.0576 240.957C71.2959 263.664 91.5353 281.989 115.537 293.905C120.549 296.368 125.69 298.556 130.939 300.46" stroke="#00AD4C" stroke-width="3.317" stroke-miterlimit="2.613" stroke-linecap="round" stroke-linejoin="round" stroke-dasharray="16.59 9.95 3.32 9.95"/>
    </g>
</svg>
